<svg xmlns="http://www.w3.org/2000/svg" width="1280" height="720" viewBox="0 0 1280 720" shape-rendering="crispEdges"><rect width="1280" height="720" fill="#b7a36c"/><rect x="14" y="14" width="1252" height="692" fill="none" stroke="#29412c" stroke-width="20"/><path d="M60 600C220 520 300 430 440 420S660 320 820 330S1050 430 1220 380" fill="none" stroke="#684b35" stroke-width="76"/><path d="M60 600C220 520 300 430 440 420S660 320 820 330S1050 430 1220 380" fill="none" stroke="#d4b47b" stroke-width="54"/><path d="M440 420C470 300 500 210 600 130" fill="none" stroke="#684b35" stroke-width="76"/><path d="M440 420C470 300 500 210 600 130" fill="none" stroke="#d4b47b" stroke-width="54"/><g><rect x="80" y="90" width="170" height="82" fill="#d9c08a" stroke="#50392a" stroke-width="8"/><path d="M70 98L165 55L260 98Z" fill="#b58c2b" stroke="#50392a" stroke-width="8"/><rect x="150" y="132" width="30" height="40" fill="#71482f"/></g><g><rect x="1010" y="90" width="170" height="82" fill="#d9c08a" stroke="#50392a" stroke-width="8"/><path d="M1000 98L1095 55L1190 98Z" fill="#9c443b" stroke="#50392a" stroke-width="8"/><rect x="1080" y="132" width="30" height="40" fill="#71482f"/></g><g><rect x="1010" y="520" width="170" height="82" fill="#d9c08a" stroke="#50392a" stroke-width="8"/><path d="M1000 528L1095 485L1190 528Z" fill="#8e4038" stroke="#50392a" stroke-width="8"/><rect x="1080" y="562" width="30" height="40" fill="#71482f"/></g><g transform="translate(300 180)"><rect x="-6" y="0" width="12" height="34" fill="#62452d"/><rect x="-26" y="-22" width="52" height="48" fill="#4b7640"/><rect x="-17" y="-40" width="34" height="30" fill="#4b874d"/></g><g transform="translate(360 570)"><rect x="-6" y="0" width="12" height="34" fill="#62452d"/><rect x="-26" y="-22" width="52" height="48" fill="#426e3b"/><rect x="-17" y="-40" width="34" height="30" fill="#4b874d"/></g><g transform="translate(740 150)"><rect x="-6" y="0" width="12" height="34" fill="#62452d"/><rect x="-26" y="-22" width="52" height="48" fill="#4b7640"/><rect x="-17" y="-40" width="34" height="30" fill="#4b874d"/></g><g transform="translate(1160 240)"><rect x="-6" y="0" width="12" height="34" fill="#62452d"/><rect x="-26" y="-22" width="52" height="48" fill="#426e3b"/><rect x="-17" y="-40" width="34" height="30" fill="#4b874d"/></g><g><ellipse cx="900" cy="220" rx="120" ry="82" fill="#65462f" stroke="#493327" stroke-width="12"/><path d="M820 230L850 170L900 205L950 155L980 230" fill="none" stroke="#d7b735" stroke-width="20"/></g></svg>