<svg xmlns="http://www.w3.org/2000/svg" width="1280" height="720" viewBox="0 0 1280 720" shape-rendering="crispEdges"><rect width="1280" height="720" fill="#638f53"/><rect x="14" y="14" width="1252" height="692" fill="none" stroke="#29412c" stroke-width="20"/><path d="M60 600C190 520 270 450 410 470S600 380 730 390S910 300 1040 330S1170 420 1220 400" fill="none" stroke="#684b35" stroke-width="76"/><path d="M60 600C190 520 270 450 410 470S600 380 730 390S910 300 1040 330S1170 420 1220 400" fill="none" stroke="#d4b47b" stroke-width="54"/><path d="M410 470C470 350 500 250 620 170S820 140 900 210" fill="none" stroke="#684b35" stroke-width="76"/><path d="M410 470C470 350 500 250 620 170S820 140 900 210" fill="none" stroke="#d4b47b" stroke-width="54"/><g><rect x="70" y="90" width="170" height="82" fill="#d9c08a" stroke="#50392a" stroke-width="8"/><path d="M60 98L155 55L250 98Z" fill="#b9683e" stroke="#50392a" stroke-width="8"/><rect x="140" y="132" width="30" height="40" fill="#71482f"/></g><g><rect x="1000" y="90" width="170" height="82" fill="#d9c08a" stroke="#50392a" stroke-width="8"/><path d="M990 98L1085 55L1180 98Z" fill="#6f814c" stroke="#50392a" stroke-width="8"/><rect x="1070" y="132" width="30" height="40" fill="#71482f"/></g><g><rect x="1000" y="510" width="170" height="82" fill="#d9c08a" stroke="#50392a" stroke-width="8"/><path d="M990 518L1085 475L1180 518Z" fill="#8f5638" stroke="#50392a" stroke-width="8"/><rect x="1070" y="552" width="30" height="40" fill="#71482f"/></g><g transform="translate(130 290)"><rect x="-6" y="0" width="12" height="34" fill="#62452d"/><rect x="-26" y="-22" width="52" height="48" fill="#356c3d"/><rect x="-17" y="-40" width="34" height="30" fill="#4b874d"/></g><g transform="translate(250 180)"><rect x="-6" y="0" width="12" height="34" fill="#62452d"/><rect x="-26" y="-22" width="52" height="48" fill="#43804a"/><rect x="-17" y="-40" width="34" height="30" fill="#4b874d"/></g><g transform="translate(330 590)"><rect x="-6" y="0" width="12" height="34" fill="#62452d"/><rect x="-26" y="-22" width="52" height="48" fill="#356c3d"/><rect x="-17" y="-40" width="34" height="30" fill="#4b874d"/></g><g transform="translate(500 120)"><rect x="-6" y="0" width="12" height="34" fill="#62452d"/><rect x="-26" y="-22" width="52" height="48" fill="#43804a"/><rect x="-17" y="-40" width="34" height="30" fill="#4b874d"/></g><g transform="translate(720 150)"><rect x="-6" y="0" width="12" height="34" fill="#62452d"/><rect x="-26" y="-22" width="52" height="48" fill="#356c3d"/><rect x="-17" y="-40" width="34" height="30" fill="#4b874d"/></g><g transform="translate(850 560)"><rect x="-6" y="0" width="12" height="34" fill="#62452d"/><rect x="-26" y="-22" width="52" height="48" fill="#43804a"/><rect x="-17" y="-40" width="34" height="30" fill="#4b874d"/></g><g transform="translate(1110 250)"><rect x="-6" y="0" width="12" height="34" fill="#62452d"/><rect x="-26" y="-22" width="52" height="48" fill="#356c3d"/><rect x="-17" y="-40" width="34" height="30" fill="#4b874d"/></g><g><rect x="820" y="300" width="32" height="150" fill="#66472c"/><rect x="760" y="300" width="150" height="70" fill="#356c3d"/><rect x="730" y="250" width="210" height="70" fill="#43804a"/><rect x="780" y="205" width="110" height="65" fill="#4e8d50"/></g><circle cx="620" cy="350" r="15" fill="#d4af37"/><circle cx="920" cy="300" r="15" fill="#d4af37"/><circle cx="1040" cy="330" r="15" fill="#d4af37"/></svg>